<?xml version="1.0" encoding="UTF-8"?>
<svg width="600" height="300" xmlns="http://www.w3.org/2000/svg">
  <rect width="100%" height="100%" fill="white"/>
  <text x="300" y="30" text-anchor="middle" font-family="Arial" font-size="16" fill="black">QIP-1 Multi-Node Entanglement Circuit</text>

  <!-- Qubits -->
  <line x1="50" y1="60" x2="550" y2="60" stroke="black" stroke-width="2"/>
  <line x1="50" y1="90" x2="550" y2="90" stroke="black" stroke-width="2"/>
  <line x1="50" y1="120" x2="550" y2="120" stroke="black" stroke-width="2"/>
  <line x1="50" y1="150" x2="550" y2="150" stroke="black" stroke-width="2"/>
  <line x1="50" y1="180" x2="550" y2="180" stroke="black" stroke-width="2"/>
  <line x1="50" y1="210" x2="550" y2="210" stroke="black" stroke-width="2"/>
  <line x1="50" y1="240" x2="550" y2="240" stroke="black" stroke-width="2"/>
  <line x1="50" y1="270" x2="550" y2="270" stroke="black" stroke-width="2"/>

  <!-- Qubit labels -->
  <text x="25" y="65" text-anchor="end" font-family="Arial" font-size="12">q[0]</text>
  <text x="25" y="95" text-anchor="end" font-family="Arial" font-size="12">q[1]</text>
  <text x="25" y="125" text-anchor="end" font-family="Arial" font-size="12">q[2]</text>
  <text x="25" y="155" text-anchor="end" font-family="Arial" font-size="12">q[3]</text>
  <text x="25" y="185" text-anchor="end" font-family="Arial" font-size="12">q[4]</text>
  <text x="25" y="215" text-anchor="end" font-family="Arial" font-size="12">q[5]</text>
  <text x="25" y="245" text-anchor="end" font-family="Arial" font-size="12">q[6]</text>
  <text x="25" y="275" text-anchor="end" font-family="Arial" font-size="12">q[7]</text>

  <!-- Gates -->
  <!-- H gates -->
  <rect x="80" y="45" width="20" height="30" fill="none" stroke="black" stroke-width="2"/>
  <text x="90" y="65" text-anchor="middle" font-family="Arial" font-size="14">H</text>

  <rect x="80" y="105" width="20" height="30" fill="none" stroke="black" stroke-width="2"/>
  <text x="90" y="125" text-anchor="middle" font-family="Arial" font-size="14">H</text>

  <rect x="80" y="165" width="20" height="30" fill="none" stroke="black" stroke-width="2"/>
  <text x="90" y="185" text-anchor="middle" font-family="Arial" font-size="14">H</text>

  <rect x="80" y="225" width="20" height="30" fill="none" stroke="black" stroke-width="2"/>
  <text x="90" y="245" text-anchor="middle" font-family="Arial" font-size="14">H</text>

  <!-- CNOT gates -->
  <circle cx="150" cy="75" r="3" fill="black"/>
  <circle cx="150" cy="105" r="8" fill="none" stroke="black" stroke-width="2"/>
  <line x1="150" y1="75" x2="150" y2="105" stroke="black" stroke-width="2"/>

  <circle cx="150" cy="135" r="3" fill="black"/>
  <circle cx="150" cy="165" r="8" fill="none" stroke="black" stroke-width="2"/>
  <line x1="150" y1="135" x2="150" y2="165" stroke="black" stroke-width="2"/>

  <circle cx="150" cy="195" r="3" fill="black"/>
  <circle cx="150" cy="225" r="8" fill="none" stroke="black" stroke-width="2"/>
  <line x1="150" y1="195" x2="150" y2="225" stroke="black" stroke-width="2"/>

  <circle cx="150" cy="255" r="3" fill="black"/>
  <circle cx="150" cy="285" r="8" fill="none" stroke="black" stroke-width="2"/>
  <line x1="150" y1="255" x2="150" y2="285" stroke="black" stroke-width="2"/>

  <!-- Barrier -->
  <line x1="200" y1="60" x2="200" y2="270" stroke="black" stroke-width="4"/>

  <!-- Measurements -->
  <rect x="250" y="50" width="20" height="20" fill="none" stroke="black" stroke-width="2"/>
  <line x1="260" y1="70" x2="260" y2="80" stroke="black" stroke-width="2"/>
  <circle cx="260" cy="85" r="2" fill="black"/>

  <rect x="250" y="80" width="20" height="20" fill="none" stroke="black" stroke-width="2"/>
  <line x1="260" y1="100" x2="260" y2="110" stroke="black" stroke-width="2"/>
  <circle cx="260" cy="115" r="2" fill="black"/>

  <rect x="250" y="110" width="20" height="20" fill="none" stroke="black" stroke-width="2"/>
  <line x1="260" y1="130" x2="260" y2="140" stroke="black" stroke-width="2"/>
  <circle cx="260" cy="145" r="2" fill="black"/>

  <rect x="250" y="140" width="20" height="20" fill="none" stroke="black" stroke-width="2"/>
  <line x1="260" y1="160" x2="260" y2="170" stroke="black" stroke-width="2"/>
  <circle cx="260" cy="175" r="2" fill="black"/>

  <rect x="250" y="170" width="20" height="20" fill="none" stroke="black" stroke-width="2"/>
  <line x1="260" y1="190" x2="260" y2="200" stroke="black" stroke-width="2"/>
  <circle cx="260" cy="205" r="2" fill="black"/>

  <rect x="250" y="200" width="20" height="20" fill="none" stroke="black" stroke-width="2"/>
  <line x1="260" y1="220" x2="260" y2="230" stroke="black" stroke-width="2"/>
  <circle cx="260" cy="235" r="2" fill="black"/>

  <rect x="250" y="230" width="20" height="20" fill="none" stroke="black" stroke-width="2"/>
  <line x1="260" y1="250" x2="260" y2="260" stroke="black" stroke-width="2"/>
  <circle cx="260" cy="265" r="2" fill="black"/>

  <rect x="250" y="260" width="20" height="20" fill="none" stroke="black" stroke-width="2"/>
  <line x1="260" y1="280" x2="260" y2="290" stroke="black" stroke-width="2"/>
  <circle cx="260" cy="295" r="2" fill="black"/>

  <!-- Classical bits -->
  <text x="290" y="65" font-family="Arial" font-size="12">c[0]</text>
  <text x="290" y="95" font-family="Arial" font-size="12">c[1]</text>
  <text x="290" y="125" font-family="Arial" font-size="12">c[2]</text>
  <text x="290" y="155" font-family="Arial" font-size="12">c[3]</text>
  <text x="290" y="185" font-family="Arial" font-size="12">c[4]</text>
  <text x="290" y="215" font-family="Arial" font-size="12">c[5]</text>
  <text x="290" y="245" font-family="Arial" font-size="12">c[6]</text>
  <text x="290" y="275" font-family="Arial" font-size="12">c[7]</text>

  <!-- Node labels -->
  <text x="350" y="40" font-family="Arial" font-size="12" fill="blue">CERN</text>
  <text x="350" y="100" font-family="Arial" font-size="12" fill="red">NASA</text>
  <text x="350" y="160" font-family="Arial" font-size="12" fill="green">xAI</text>
  <text x="350" y="220" font-family="Arial" font-size="12" fill="purple">Starlink</text>

  <text x="300" y="290" text-anchor="middle" font-family="Arial" font-size="10" fill="gray">QIP-1 Thin Line Protocol - 8 Qubit Multi-Node Entanglement</text>
</svg>